<?xml version="1.0" encoding="UTF-8"?>
<!DOCTYPE svg PUBLIC "-//W3C//DTD SVG 1.1//EN" "http://www.w3.org/Graphics/SVG/1.1/DTD/svg11.dtd">
<!-- Creator: CorelDRAW 2026 -->
<svg xmlns="http://www.w3.org/2000/svg" xml:space="preserve" width="0.16in" height="0.16in" version="1.1" style="shape-rendering:geometricPrecision; text-rendering:geometricPrecision; image-rendering:optimizeQuality; fill-rule:evenodd; clip-rule:evenodd"
viewBox="0 0 160 160"
 xmlns:xlink="http://www.w3.org/1999/xlink"
 xmlns:xodm="http://www.corel.com/coreldraw/odm/2003">
 <defs>
  <style type="text/css">
   <![CDATA[
    .fil132 {fill:#51BD1E}
    .fil131 {fill:#52BD1E}
    .fil129 {fill:#52BE1D}
    .fil130 {fill:#52BE1E}
    .fil128 {fill:#53BE1D}
    .fil127 {fill:#53BF1D}
    .fil126 {fill:#54BF1D}
    .fil125 {fill:#54C01D}
    .fil124 {fill:#55C01C}
    .fil123 {fill:#55C11C}
    .fil122 {fill:#56C11C}
    .fil121 {fill:#56C21C}
    .fil120 {fill:#57C21C}
    .fil119 {fill:#57C31B}
    .fil118 {fill:#58C31B}
    .fil117 {fill:#58C41B}
    .fil116 {fill:#59C41B}
    .fil115 {fill:#59C51B}
    .fil114 {fill:#5AC51A}
    .fil113 {fill:#5AC61A}
    .fil112 {fill:#5BC61A}
    .fil111 {fill:#5BC71A}
    .fil109 {fill:#5CC719}
    .fil110 {fill:#5CC71A}
    .fil108 {fill:#5DC819}
    .fil106 {fill:#5EC918}
    .fil107 {fill:#5EC919}
    .fil105 {fill:#5FCA18}
    .fil104 {fill:#60CA18}
    .fil103 {fill:#60CB18}
    .fil102 {fill:#61CB17}
    .fil101 {fill:#61CC17}
    .fil100 {fill:#62CC17}
    .fil99 {fill:#62CD17}
    .fil98 {fill:#63CD17}
    .fil97 {fill:#63CE16}
    .fil96 {fill:#64CE16}
    .fil95 {fill:#64CF16}
    .fil94 {fill:#65CF16}
    .fil93 {fill:#65D016}
    .fil92 {fill:#66D015}
    .fil91 {fill:#66D115}
    .fil90 {fill:#67D115}
    .fil88 {fill:#68D214}
    .fil89 {fill:#68D215}
    .fil87 {fill:#69D314}
    .fil86 {fill:#6AD314}
    .fil84 {fill:#6AD413}
    .fil85 {fill:#6AD414}
    .fil83 {fill:#6BD513}
    .fil82 {fill:#6CD513}
    .fil81 {fill:#6CD613}
    .fil80 {fill:#6DD612}
    .fil79 {fill:#6DD712}
    .fil78 {fill:#6ED712}
    .fil77 {fill:#6ED812}
    .fil76 {fill:#6FD812}
    .fil75 {fill:#6FD911}
    .fil74 {fill:#70D911}
    .fil73 {fill:#70DA11}
    .fil72 {fill:#71DA11}
    .fil71 {fill:#71DB10}
    .fil70 {fill:#72DB10}
    .fil69 {fill:#73DC10}
    .fil67 {fill:#74DD0F}
    .fil68 {fill:#74DD10}
    .fil66 {fill:#75DE0F}
    .fil64 {fill:#76DF0E}
    .fil65 {fill:#76DF0F}
    .fil63 {fill:#77E00E}
    .fil62 {fill:#78E10E}
    .fil61 {fill:#79E10E}
    .fil60 {fill:#79E20D}
    .fil59 {fill:#7AE20D}
    .fil58 {fill:#7AE30D}
    .fil57 {fill:#7BE30D}
    .fil56 {fill:#7BE40C}
    .fil55 {fill:#7CE40C}
    .fil54 {fill:#7CE50C}
    .fil53 {fill:#7DE50C}
    .fil52 {fill:#7DE60C}
    .fil51 {fill:#7EE60B}
    .fil50 {fill:#7EE70B}
    .fil49 {fill:#7FE70B}
    .fil47 {fill:#80E80A}
    .fil48 {fill:#80E80B}
    .fil46 {fill:#80E90A}
    .fil45 {fill:#81E90A}
    .fil43 {fill:#82EA09}
    .fil44 {fill:#82EA0A}
    .fil42 {fill:#83EB09}
    .fil41 {fill:#84EB09}
    .fil40 {fill:#84EC09}
    .fil39 {fill:#85EC08}
    .fil38 {fill:#85ED08}
    .fil37 {fill:#86ED08}
    .fil36 {fill:#86EE08}
    .fil35 {fill:#87EE08}
    .fil34 {fill:#87EF07}
    .fil33 {fill:#88EF07}
    .fil32 {fill:#88F007}
    .fil31 {fill:#89F007}
    .fil30 {fill:#89F107}
    .fil29 {fill:#8AF106}
    .fil28 {fill:#8AF206}
    .fil27 {fill:#8BF206}
    .fil25 {fill:#8CF305}
    .fil26 {fill:#8CF306}
    .fil24 {fill:#8DF405}
    .fil22 {fill:#8EF504}
    .fil23 {fill:#8EF505}
    .fil21 {fill:#8FF504}
    .fil20 {fill:#8FF604}
    .fil19 {fill:#90F604}
    .fil18 {fill:#90F704}
    .fil17 {fill:#91F703}
    .fil16 {fill:#91F803}
    .fil15 {fill:#92F803}
    .fil14 {fill:#92F903}
    .fil13 {fill:#93F903}
    .fil12 {fill:#93FA02}
    .fil11 {fill:#94FA02}
    .fil10 {fill:#94FB02}
    .fil9 {fill:#95FB02}
    .fil8 {fill:#95FC02}
    .fil7 {fill:#96FC01}
    .fil6 {fill:#96FD01}
    .fil5 {fill:#97FD01}
    .fil4 {fill:#97FE01}
    .fil2 {fill:#98FE00}
    .fil3 {fill:#98FE01}
    .fil1 {fill:#98FF00}
    .fil0 {fill:#99FF00}
    .fil133 {fill:white}
   ]]>
  </style>
    <clipPath id="id0">
     <path d="M-0 0l160 0 0 160 -160 0 0 -160z"/>
    </clipPath>
 </defs>
 <g id="Layer_x0020_1">
  <metadata id="CorelCorpID_0Corel-Layer"/>
  <g>
   <g style="clip-path:url(#id0)">
    <polygon class="fil0" points="81.19,-79.99 105.1,-55.72 -56.08,103.09 -79.99,78.81 "/>
    <polygon id="_1" class="fil0" points="104.88,-55.94 105.54,-55.28 -55.64,103.53 -56.3,102.86 "/>
    <polygon id="_2" class="fil0" points="105.31,-55.5 105.98,-54.83 -55.2,103.98 -55.86,103.31 "/>
    <polygon id="_3" class="fil0" points="105.76,-55.06 106.41,-54.39 -54.76,104.42 -55.42,103.75 "/>
    <polygon id="_4" class="fil0" points="106.19,-54.61 106.85,-53.94 -54.32,104.87 -54.98,104.2 "/>
    <polygon id="_5" class="fil0" points="106.63,-54.16 107.29,-53.5 -53.89,105.31 -54.54,104.64 "/>
    <polygon id="_6" class="fil0" points="107.07,-53.72 107.73,-53.05 -53.44,105.76 -54.1,105.09 "/>
    <polygon id="_7" class="fil0" points="107.51,-53.27 108.17,-52.61 -53.01,106.2 -53.67,105.54 "/>
    <polygon id="_8" class="fil0" points="107.95,-52.83 108.61,-52.16 -52.57,106.65 -53.23,105.98 "/>
    <polygon id="_9" class="fil0" points="108.39,-52.38 109.05,-51.71 -52.13,107.09 -52.79,106.43 "/>
    <polygon id="_10" class="fil0" points="108.83,-51.94 109.48,-51.27 -51.69,107.54 -52.35,106.87 "/>
    <polygon id="_11" class="fil0" points="109.26,-51.49 109.92,-50.82 -51.25,107.98 -51.91,107.31 "/>
    <polygon id="_12" class="fil0" points="109.7,-51.05 110.36,-50.38 -50.81,108.43 -51.47,107.76 "/>
    <polygon id="_13" class="fil1" points="110.14,-50.6 110.8,-49.93 -50.37,108.87 -51.04,108.2 "/>
    <polygon id="_14" class="fil2" points="110.58,-50.16 111.24,-49.49 -49.94,109.32 -50.59,108.65 "/>
    <polygon id="_15" class="fil2" points="111.02,-49.71 111.68,-49.04 -49.5,109.76 -50.16,109.09 "/>
    <polygon id="_16" class="fil2" points="111.46,-49.27 112.11,-48.6 -49.06,110.21 -49.72,109.54 "/>
    <polygon id="_17" class="fil2" points="111.9,-48.82 112.56,-48.15 -48.62,110.65 -49.28,109.98 "/>
    <polygon id="_18" class="fil2" points="112.33,-48.37 112.99,-47.71 -48.18,111.1 -48.84,110.43 "/>
    <polygon id="_19" class="fil2" points="112.78,-47.93 113.43,-47.26 -47.74,111.54 -48.4,110.88 "/>
    <polygon id="_20" class="fil3" points="113.21,-47.48 113.87,-46.82 -47.3,111.99 -47.96,111.32 "/>
    <polygon id="_21" class="fil3" points="113.65,-47.04 114.31,-46.37 -46.87,112.43 -47.52,111.77 "/>
    <polygon id="_22" class="fil4" points="114.09,-46.59 114.75,-45.93 -46.43,112.88 -47.09,112.21 "/>
    <polygon id="_23" class="fil5" points="114.53,-46.15 115.19,-45.48 -45.99,113.33 -46.65,112.66 "/>
    <polygon id="_24" class="fil5" points="114.97,-45.7 115.63,-45.04 -45.55,113.77 -46.21,113.1 "/>
    <polygon id="_25" class="fil5" points="115.41,-45.26 116.06,-44.59 -45.11,114.22 -45.77,113.55 "/>
    <polygon id="_26" class="fil5" points="115.85,-44.81 116.5,-44.15 -44.67,114.66 -45.33,113.99 "/>
    <polygon id="_27" class="fil5" points="116.28,-44.37 116.94,-43.7 -44.24,115.11 -44.89,114.44 "/>
    <polygon id="_28" class="fil5" points="116.72,-43.93 117.38,-43.26 -43.8,115.55 -44.45,114.88 "/>
    <polygon id="_29" class="fil6" points="117.16,-43.48 117.82,-42.81 -43.36,116 -44.02,115.33 "/>
    <polygon id="_30" class="fil7" points="117.6,-43.03 118.26,-42.37 -42.92,116.44 -43.57,115.78 "/>
    <polygon id="_31" class="fil7" points="118.04,-42.59 118.7,-41.92 -42.48,116.89 -43.14,116.22 "/>
    <polygon id="_32" class="fil7" points="118.48,-42.14 119.13,-41.48 -42.04,117.33 -42.7,116.67 "/>
    <polygon id="_33" class="fil7" points="118.91,-41.7 119.57,-41.03 -41.6,117.78 -42.26,117.11 "/>
    <polygon id="_34" class="fil7" points="119.35,-41.25 120.01,-40.58 -41.17,118.22 -41.82,117.56 "/>
    <polygon id="_35" class="fil8" points="119.79,-40.81 120.45,-40.14 -40.72,118.67 -41.38,118 "/>
    <polygon id="_36" class="fil9" points="120.23,-40.36 120.89,-39.69 -40.29,119.11 -40.94,118.44 "/>
    <polygon id="_37" class="fil9" points="120.67,-39.92 121.33,-39.25 -39.85,119.56 -40.5,118.89 "/>
    <polygon id="_38" class="fil9" points="121.11,-39.47 121.77,-38.8 -39.41,120 -40.07,119.33 "/>
    <polygon id="_39" class="fil10" points="121.55,-39.03 122.2,-38.36 -38.97,120.45 -39.63,119.78 "/>
    <polygon id="_40" class="fil10" points="121.98,-38.58 122.65,-37.91 -38.53,120.89 -39.19,120.22 "/>
    <polygon id="_41" class="fil11" points="122.43,-38.14 123.08,-37.47 -38.09,121.34 -38.75,120.67 "/>
    <polygon id="_42" class="fil11" points="122.86,-37.69 123.52,-37.02 -37.65,121.78 -38.31,121.11 "/>
    <polygon id="_43" class="fil11" points="123.3,-37.24 123.96,-36.58 -37.22,122.23 -37.87,121.56 "/>
    <polygon id="_44" class="fil12" points="123.74,-36.8 124.4,-36.13 -36.78,122.67 -37.44,122.01 "/>
    <polygon id="_45" class="fil12" points="124.18,-36.35 124.84,-35.69 -36.34,123.12 -37,122.45 "/>
    <polygon id="_46" class="fil13" points="124.62,-35.91 125.28,-35.24 -35.9,123.56 -36.56,122.9 "/>
    <polygon id="_47" class="fil13" points="125.06,-35.46 125.71,-34.8 -35.46,124.01 -36.12,123.34 "/>
    <polygon id="_48" class="fil14" points="125.5,-35.02 126.15,-34.35 -35.02,124.46 -35.68,123.79 "/>
    <polygon id="_49" class="fil14" points="125.93,-34.57 126.59,-33.91 -34.58,124.9 -35.24,124.23 "/>
    <polygon id="_50" class="fil15" points="126.37,-34.13 127.03,-33.46 -34.15,125.35 -34.8,124.68 "/>
    <polygon id="_51" class="fil15" points="126.81,-33.69 127.47,-33.02 -33.7,125.79 -34.37,125.12 "/>
    <polygon id="_52" class="fil16" points="127.25,-33.24 127.91,-32.57 -33.27,126.24 -33.93,125.57 "/>
    <polygon id="_53" class="fil16" points="127.69,-32.8 128.35,-32.13 -32.83,126.68 -33.49,126.01 "/>
    <polygon id="_54" class="fil17" points="128.13,-32.35 128.78,-31.68 -32.39,127.13 -33.05,126.46 "/>
    <polygon id="_55" class="fil18" points="128.57,-31.9 129.22,-31.24 -31.95,127.57 -32.61,126.91 "/>
    <polygon id="_56" class="fil18" points="129,-31.46 129.66,-30.79 -31.51,128.02 -32.17,127.35 "/>
    <polygon id="_57" class="fil18" points="129.44,-31.01 130.1,-30.35 -31.07,128.46 -31.73,127.8 "/>
    <polygon id="_58" class="fil19" points="129.88,-30.57 130.54,-29.9 -30.64,128.91 -31.3,128.24 "/>
    <polygon id="_59" class="fil20" points="130.32,-30.12 130.98,-29.45 -30.2,129.35 -30.85,128.69 "/>
    <polygon id="_60" class="fil20" points="130.76,-29.68 131.42,-29.01 -29.76,129.8 -30.42,129.13 "/>
    <polygon id="_61" class="fil21" points="131.2,-29.23 131.85,-28.56 -29.32,130.24 -29.98,129.57 "/>
    <polygon id="_62" class="fil22" points="131.64,-28.79 132.3,-28.12 -28.88,130.69 -29.54,130.02 "/>
    <polygon id="_63" class="fil23" points="132.07,-28.34 132.73,-27.67 -28.44,131.13 -29.1,130.46 "/>
    <polygon id="_64" class="fil23" points="132.51,-27.9 133.17,-27.23 -28,131.58 -28.66,130.91 "/>
    <polygon id="_65" class="fil24" points="132.95,-27.45 133.61,-26.78 -27.57,132.02 -28.22,131.35 "/>
    <polygon id="_66" class="fil24" points="133.39,-27 134.05,-26.34 -27.13,132.47 -27.78,131.8 "/>
    <polygon id="_67" class="fil24" points="133.83,-26.56 134.49,-25.89 -26.69,132.91 -27.35,132.25 "/>
    <polygon id="_68" class="fil25" points="134.27,-26.11 134.93,-25.45 -26.25,133.36 -26.91,132.69 "/>
    <polygon id="_69" class="fil25" points="134.71,-25.67 135.37,-25 -25.81,133.8 -26.47,133.14 "/>
    <polygon id="_70" class="fil26" points="135.15,-25.22 135.8,-24.56 -25.37,134.25 -26.03,133.58 "/>
    <polygon id="_71" class="fil27" points="135.58,-24.78 136.24,-24.11 -24.93,134.69 -25.59,134.03 "/>
    <polygon id="_72" class="fil27" points="136.02,-24.33 136.68,-23.67 -24.5,135.14 -25.15,134.47 "/>
    <polygon id="_73" class="fil27" points="136.46,-23.89 137.12,-23.22 -24.06,135.59 -24.71,134.92 "/>
    <polygon id="_74" class="fil28" points="136.9,-23.44 137.56,-22.78 -23.62,136.03 -24.28,135.36 "/>
    <polygon id="_75" class="fil29" points="137.34,-23 138,-22.33 -23.18,136.48 -23.84,135.81 "/>
    <polygon id="_76" class="fil29" points="137.78,-22.56 138.44,-21.89 -22.74,136.92 -23.4,136.25 "/>
    <polygon id="_77" class="fil30" points="138.22,-22.11 138.87,-21.44 -22.3,137.37 -22.96,136.7 "/>
    <polygon id="_78" class="fil31" points="138.65,-21.67 139.31,-21 -21.86,137.81 -22.52,137.14 "/>
    <polygon id="_79" class="fil31" points="139.09,-21.22 139.75,-20.55 -21.43,138.26 -22.08,137.59 "/>
    <polygon id="_80" class="fil32" points="139.53,-20.77 140.19,-20.11 -20.98,138.7 -21.64,138.04 "/>
    <polygon id="_81" class="fil33" points="139.97,-20.33 140.63,-19.66 -20.55,139.15 -21.2,138.48 "/>
    <polygon id="_82" class="fil34" points="140.41,-19.88 141.07,-19.22 -20.11,139.59 -20.77,138.93 "/>
    <polygon id="_83" class="fil34" points="140.85,-19.44 141.51,-18.77 -19.67,140.04 -20.33,139.37 "/>
    <polygon id="_84" class="fil35" points="141.29,-18.99 141.94,-18.32 -19.23,140.48 -19.89,139.81 "/>
    <polygon id="_85" class="fil36" points="141.72,-18.55 142.38,-17.88 -18.79,140.93 -19.45,140.26 "/>
    <polygon id="_86" class="fil36" points="142.17,-18.1 142.82,-17.43 -18.35,141.37 -19.01,140.7 "/>
    <polygon id="_87" class="fil37" points="142.6,-17.66 143.26,-16.99 -17.91,141.82 -18.57,141.15 "/>
    <polygon id="_88" class="fil38" points="143.04,-17.21 143.7,-16.54 -17.48,142.26 -18.13,141.59 "/>
    <polygon id="_89" class="fil39" points="143.48,-16.77 144.14,-16.1 -17.04,142.71 -17.7,142.04 "/>
    <polygon id="_90" class="fil40" points="143.92,-16.32 144.58,-15.65 -16.6,143.15 -17.26,142.48 "/>
    <polygon id="_91" class="fil40" points="144.36,-15.87 145.02,-15.21 -16.16,143.6 -16.82,142.93 "/>
    <polygon id="_92" class="fil41" points="144.8,-15.43 145.45,-14.76 -15.72,144.04 -16.38,143.38 "/>
    <polygon id="_93" class="fil42" points="145.24,-14.98 145.89,-14.32 -15.28,144.49 -15.94,143.82 "/>
    <polygon id="_94" class="fil42" points="145.67,-14.54 146.33,-13.87 -14.84,144.93 -15.5,144.27 "/>
    <polygon id="_95" class="fil43" points="146.11,-14.09 146.77,-13.43 -14.41,145.38 -15.06,144.71 "/>
    <polygon id="_96" class="fil44" points="146.55,-13.65 147.21,-12.98 -13.97,145.82 -14.63,145.16 "/>
    <polygon id="_97" class="fil44" points="146.99,-13.2 147.65,-12.54 -13.53,146.27 -14.19,145.6 "/>
    <polygon id="_98" class="fil45" points="147.43,-12.76 148.09,-12.09 -13.09,146.72 -13.75,146.05 "/>
    <polygon id="_99" class="fil45" points="147.87,-12.31 148.52,-11.65 -12.65,147.16 -13.31,146.49 "/>
    <polygon id="_100" class="fil46" points="148.31,-11.87 148.96,-11.2 -12.21,147.61 -12.87,146.94 "/>
    <polygon id="_101" class="fil47" points="148.74,-11.43 149.4,-10.76 -11.77,148.05 -12.43,147.38 "/>
    <polygon id="_102" class="fil48" points="149.18,-10.98 149.84,-10.31 -11.33,148.5 -11.99,147.83 "/>
    <polygon id="_103" class="fil49" points="149.62,-10.53 150.28,-9.87 -10.9,148.94 -11.56,148.27 "/>
    <polygon id="_104" class="fil49" points="150.06,-10.09 150.72,-9.42 -10.46,149.39 -11.11,148.72 "/>
    <polygon id="_105" class="fil50" points="150.5,-9.64 151.16,-8.98 -10.02,149.83 -10.68,149.17 "/>
    <polygon id="_106" class="fil51" points="150.94,-9.2 151.59,-8.53 -9.58,150.28 -10.24,149.61 "/>
    <polygon id="_107" class="fil51" points="151.37,-8.75 152.04,-8.09 -9.14,150.72 -9.8,150.06 "/>
    <polygon id="_108" class="fil52" points="151.81,-8.31 152.47,-7.64 -8.7,151.17 -9.36,150.5 "/>
    <polygon id="_109" class="fil53" points="152.25,-7.86 152.91,-7.19 -8.26,151.61 -8.92,150.94 "/>
    <polygon id="_110" class="fil54" points="152.69,-7.42 153.35,-6.75 -7.83,152.06 -8.48,151.39 "/>
    <polygon id="_111" class="fil55" points="153.13,-6.97 153.79,-6.3 -7.39,152.5 -8.04,151.83 "/>
    <polygon id="_112" class="fil55" points="153.57,-6.53 154.23,-5.86 -6.95,152.95 -7.61,152.28 "/>
    <polygon id="_113" class="fil56" points="154.01,-6.08 154.67,-5.41 -6.51,153.39 -7.17,152.72 "/>
    <polygon id="_114" class="fil57" points="154.44,-5.64 155.11,-4.97 -6.07,153.84 -6.73,153.17 "/>
    <polygon id="_115" class="fil58" points="154.89,-5.19 155.54,-4.52 -5.63,154.28 -6.29,153.61 "/>
    <polygon id="_116" class="fil59" points="155.32,-4.74 155.98,-4.08 -5.19,154.73 -5.85,154.06 "/>
    <polygon id="_117" class="fil60" points="155.76,-4.3 156.42,-3.63 -4.76,155.17 -5.41,154.51 "/>
    <polygon id="_118" class="fil60" points="156.2,-3.85 156.86,-3.19 -4.31,155.62 -4.97,154.95 "/>
    <polygon id="_119" class="fil61" points="156.64,-3.41 157.3,-2.74 -3.88,156.06 -4.54,155.4 "/>
    <polygon id="_120" class="fil62" points="157.08,-2.96 157.74,-2.3 -3.44,156.51 -4.1,155.84 "/>
    <polygon id="_121" class="fil62" points="157.52,-2.52 158.17,-1.85 -3,156.96 -3.66,156.29 "/>
    <polygon id="_122" class="fil63" points="157.96,-2.07 158.61,-1.41 -2.56,157.4 -3.22,156.73 "/>
    <polygon id="_123" class="fil63" points="158.39,-1.63 159.05,-0.96 -2.12,157.85 -2.78,157.18 "/>
    <polygon id="_124" class="fil64" points="158.83,-1.19 159.49,-0.52 -1.69,158.29 -2.34,157.62 "/>
    <polygon id="_125" class="fil65" points="159.27,-0.74 159.93,-0.07 -1.24,158.74 -1.91,158.07 "/>
    <polygon id="_126" class="fil65" points="159.71,-0.3 160.37,0.37 -0.81,159.18 -1.46,158.51 "/>
    <polygon id="_127" class="fil66" points="160.15,0.15 160.81,0.82 -0.37,159.63 -1.03,158.96 "/>
    <polygon id="_128" class="fil66" points="160.59,0.6 161.24,1.26 0.07,160.07 -0.59,159.4 "/>
    <polygon id="_129" class="fil67" points="161.03,1.04 161.69,1.71 0.51,160.52 -0.15,159.85 "/>
    <polygon id="_130" class="fil67" points="161.46,1.49 162.12,2.15 0.95,160.96 0.29,160.3 "/>
    <polygon id="_131" class="fil68" points="161.91,1.93 162.56,2.6 1.39,161.41 0.73,160.74 "/>
    <polygon id="_132" class="fil69" points="162.34,2.38 163,3.04 1.83,161.85 1.17,161.19 "/>
    <polygon id="_133" class="fil69" points="162.78,2.82 163.44,3.49 2.26,162.3 1.61,161.63 "/>
    <polygon id="_134" class="fil70" points="163.22,3.27 163.88,3.94 2.7,162.74 2.04,162.07 "/>
    <polygon id="_135" class="fil70" points="163.66,3.71 164.31,4.38 3.14,163.19 2.48,162.52 "/>
    <polygon id="_136" class="fil71" points="164.1,4.16 164.76,4.83 3.58,163.63 2.92,162.96 "/>
    <polygon id="_137" class="fil72" points="164.54,4.6 165.19,5.27 4.02,164.08 3.36,163.41 "/>
    <polygon id="_138" class="fil72" points="164.97,5.05 165.63,5.72 4.46,164.52 3.8,163.85 "/>
    <polygon id="_139" class="fil73" points="165.41,5.49 166.07,6.16 4.89,164.97 4.24,164.3 "/>
    <polygon id="_140" class="fil74" points="165.85,5.94 166.51,6.61 5.33,165.41 4.68,164.74 "/>
    <polygon id="_141" class="fil75" points="166.29,6.39 166.95,7.05 5.77,165.86 5.11,165.19 "/>
    <polygon id="_142" class="fil76" points="166.73,6.83 167.39,7.5 6.21,166.3 5.56,165.64 "/>
    <polygon id="_143" class="fil77" points="167.17,7.28 167.83,7.94 6.65,166.75 5.99,166.08 "/>
    <polygon id="_144" class="fil77" points="167.61,7.72 168.26,8.39 7.09,167.19 6.43,166.53 "/>
    <polygon id="_145" class="fil78" points="168.04,8.17 168.7,8.83 7.53,167.64 6.87,166.97 "/>
    <polygon id="_146" class="fil79" points="168.48,8.61 169.14,9.28 7.96,168.09 7.31,167.42 "/>
    <polygon id="_147" class="fil80" points="168.92,9.06 169.58,9.72 8.41,168.53 7.75,167.86 "/>
    <polygon id="_148" class="fil81" points="169.36,9.5 170.02,10.17 8.84,168.98 8.19,168.31 "/>
    <polygon id="_149" class="fil81" points="169.8,9.94 170.46,10.61 9.28,169.42 8.63,168.75 "/>
    <polygon id="_150" class="fil82" points="170.24,10.39 170.9,11.06 9.72,169.87 9.06,169.2 "/>
    <polygon id="_151" class="fil83" points="170.68,10.83 171.33,11.5 10.16,170.31 9.5,169.64 "/>
    <polygon id="_152" class="fil83" points="171.11,11.28 171.77,11.95 10.6,170.76 9.94,170.09 "/>
    <polygon id="_153" class="fil84" points="171.56,11.73 172.21,12.39 11.04,171.2 10.38,170.53 "/>
    <polygon id="_154" class="fil85" points="171.99,12.17 172.65,12.84 11.48,171.65 10.82,170.98 "/>
    <polygon id="_155" class="fil86" points="172.43,12.62 173.09,13.28 11.91,172.09 11.26,171.43 "/>
    <polygon id="_156" class="fil87" points="172.87,13.06 173.53,13.73 12.35,172.54 11.69,171.87 "/>
    <polygon id="_157" class="fil87" points="173.31,13.51 173.97,14.18 12.79,172.98 12.13,172.31 "/>
    <polygon id="_158" class="fil88" points="173.75,13.95 174.41,14.62 13.23,173.43 12.57,172.76 "/>
    <polygon id="_159" class="fil88" points="174.19,14.4 174.84,15.07 13.67,173.87 13.01,173.2 "/>
    <polygon id="_160" class="fil89" points="174.63,14.84 175.28,15.51 14.11,174.32 13.45,173.65 "/>
    <polygon id="_161" class="fil90" points="175.06,15.29 175.72,15.96 14.55,174.76 13.89,174.09 "/>
    <polygon id="_162" class="fil90" points="175.5,15.73 176.16,16.4 14.98,175.21 14.33,174.54 "/>
    <polygon id="_163" class="fil91" points="175.94,16.18 176.6,16.85 15.42,175.65 14.76,174.98 "/>
    <polygon id="_164" class="fil92" points="176.38,16.62 177.04,17.29 15.86,176.1 15.2,175.43 "/>
    <polygon id="_165" class="fil92" points="176.82,17.07 177.48,17.74 16.3,176.54 15.64,175.87 "/>
    <polygon id="_166" class="fil93" points="177.26,17.52 177.91,18.18 16.74,176.99 16.08,176.32 "/>
    <polygon id="_167" class="fil94" points="177.7,17.96 178.35,18.63 17.18,177.43 16.52,176.77 "/>
    <polygon id="_168" class="fil95" points="178.13,18.41 178.79,19.07 17.62,177.88 16.96,177.21 "/>
    <polygon id="_169" class="fil96" points="178.57,18.85 179.23,19.52 18.06,178.32 17.4,177.66 "/>
    <polygon id="_170" class="fil96" points="179.01,19.3 179.67,19.96 18.49,178.77 17.83,178.1 "/>
    <polygon id="_171" class="fil97" points="179.45,19.74 180.11,20.41 18.93,179.22 18.28,178.55 "/>
    <polygon id="_172" class="fil98" points="179.89,20.19 180.55,20.85 19.37,179.66 18.71,178.99 "/>
    <polygon id="_173" class="fil98" points="180.33,20.63 180.98,21.3 19.81,180.11 19.15,179.44 "/>
    <polygon id="_174" class="fil99" points="180.77,21.07 181.43,21.74 20.25,180.55 19.59,179.88 "/>
    <polygon id="_175" class="fil100" points="181.2,21.52 181.86,22.19 20.69,181 20.03,180.33 "/>
    <polygon id="_176" class="fil101" points="181.64,21.96 182.3,22.63 21.13,181.44 20.47,180.77 "/>
    <polygon id="_177" class="fil101" points="182.08,22.41 182.74,23.08 21.56,181.89 20.91,181.22 "/>
    <polygon id="_178" class="fil102" points="182.52,22.86 183.18,23.52 22,182.33 21.35,181.67 "/>
    <polygon id="_179" class="fil103" points="182.96,23.3 183.62,23.97 22.44,182.78 21.78,182.11 "/>
    <polygon id="_180" class="fil103" points="183.4,23.75 184.06,24.41 22.88,183.22 22.22,182.56 "/>
    <polygon id="_181" class="fil104" points="183.84,24.19 184.5,24.86 23.32,183.67 22.66,183 "/>
    <polygon id="_182" class="fil105" points="184.28,24.64 184.93,25.31 23.76,184.11 23.1,183.44 "/>
    <polygon id="_183" class="fil105" points="184.71,25.08 185.37,25.75 24.2,184.56 23.54,183.89 "/>
    <polygon id="_184" class="fil105" points="185.15,25.53 185.81,26.2 24.63,185 23.98,184.33 "/>
    <polygon id="_185" class="fil106" points="185.59,25.97 186.25,26.64 25.07,185.45 24.42,184.78 "/>
    <polygon id="_186" class="fil107" points="186.03,26.42 186.69,27.09 25.51,185.89 24.85,185.22 "/>
    <polygon id="_187" class="fil107" points="186.47,26.86 187.13,27.53 25.95,186.34 25.29,185.67 "/>
    <polygon id="_188" class="fil108" points="186.91,27.31 187.57,27.98 26.39,186.78 25.73,186.11 "/>
    <polygon id="_189" class="fil108" points="187.35,27.75 188,28.42 26.83,187.23 26.17,186.56 "/>
    <polygon id="_190" class="fil108" points="187.78,28.2 188.44,28.87 27.27,187.67 26.61,187 "/>
    <polygon id="_191" class="fil109" points="188.22,28.65 188.88,29.31 27.7,188.12 27.05,187.45 "/>
    <polygon id="_192" class="fil109" points="188.66,29.09 189.32,29.76 28.15,188.56 27.49,187.9 "/>
    <polygon id="_193" class="fil110" points="189.1,29.54 189.76,30.2 28.58,189.01 27.93,188.34 "/>
    <polygon id="_194" class="fil111" points="189.54,29.98 190.2,30.65 29.02,189.45 28.36,188.79 "/>
    <polygon id="_195" class="fil112" points="189.98,30.43 190.64,31.09 29.46,189.9 28.8,189.23 "/>
    <polygon id="_196" class="fil112" points="190.42,30.87 191.07,31.54 29.9,190.35 29.24,189.68 "/>
    <polygon id="_197" class="fil113" points="190.85,31.31 191.51,31.98 30.34,190.79 29.68,190.12 "/>
    <polygon id="_198" class="fil114" points="191.3,31.76 191.95,32.43 30.78,191.24 30.12,190.57 "/>
    <polygon id="_199" class="fil114" points="191.73,32.2 192.39,32.87 31.22,191.68 30.56,191.01 "/>
    <polygon id="_200" class="fil114" points="192.17,32.65 192.83,33.32 31.65,192.13 31,191.46 "/>
    <polygon id="_201" class="fil115" points="192.61,33.09 193.27,33.76 32.09,192.57 31.43,191.9 "/>
    <polygon id="_202" class="fil116" points="193.05,33.54 193.7,34.21 32.53,193.02 31.87,192.35 "/>
    <polygon id="_203" class="fil116" points="193.49,33.99 194.15,34.65 32.97,193.46 32.31,192.8 "/>
    <polygon id="_204" class="fil117" points="193.93,34.43 194.58,35.1 33.41,193.91 32.75,193.24 "/>
    <polygon id="_205" class="fil117" points="194.37,34.88 195.02,35.54 33.85,194.35 33.19,193.69 "/>
    <polygon id="_206" class="fil118" points="194.8,35.32 195.46,35.99 34.29,194.8 33.63,194.13 "/>
    <polygon id="_207" class="fil118" points="195.24,35.77 195.9,36.44 34.72,195.24 34.07,194.57 "/>
    <polygon id="_208" class="fil119" points="195.68,36.21 196.34,36.88 35.16,195.69 34.5,195.02 "/>
    <polygon id="_209" class="fil119" points="196.12,36.66 196.78,37.33 35.6,196.13 34.94,195.46 "/>
    <polygon id="_210" class="fil120" points="196.56,37.1 197.22,37.77 36.04,196.58 35.38,195.91 "/>
    <polygon id="_211" class="fil120" points="197,37.55 197.65,38.22 36.48,197.02 35.82,196.35 "/>
    <polygon id="_212" class="fil121" points="197.44,37.99 198.09,38.66 36.92,197.47 36.26,196.8 "/>
    <polygon id="_213" class="fil121" points="197.87,38.44 198.53,39.11 37.35,197.91 36.7,197.24 "/>
    <polygon id="_214" class="fil121" points="198.31,38.89 198.97,39.55 37.8,198.36 37.14,197.69 "/>
    <polygon id="_215" class="fil122" points="198.75,39.33 199.41,40 38.23,198.8 37.57,198.14 "/>
    <polygon id="_216" class="fil122" points="199.19,39.78 199.85,40.44 38.67,199.25 38.02,198.58 "/>
    <polygon id="_217" class="fil123" points="199.63,40.22 200.29,40.89 39.11,199.69 38.45,199.03 "/>
    <polygon id="_218" class="fil123" points="200.07,40.67 200.72,41.33 39.55,200.14 38.89,199.47 "/>
    <polygon id="_219" class="fil123" points="200.5,41.11 201.17,41.78 39.99,200.58 39.33,199.92 "/>
    <polygon id="_220" class="fil124" points="200.94,41.56 201.6,42.22 40.43,201.03 39.77,200.36 "/>
    <polygon id="_221" class="fil125" points="201.38,42 202.04,42.67 40.87,201.48 40.21,200.81 "/>
    <polygon id="_222" class="fil125" points="201.82,42.44 202.48,43.11 41.3,201.92 40.65,201.25 "/>
    <polygon id="_223" class="fil125" points="202.26,42.89 202.92,43.56 41.74,202.37 41.09,201.7 "/>
    <polygon id="_224" class="fil125" points="202.7,43.33 203.36,44 42.18,202.81 41.52,202.14 "/>
    <polygon id="_225" class="fil125" points="203.14,43.78 203.8,44.45 42.62,203.26 41.96,202.59 "/>
    <polygon id="_226" class="fil126" points="203.57,44.22 204.24,44.89 43.06,203.7 42.4,203.03 "/>
    <polygon id="_227" class="fil127" points="204.02,44.67 204.67,45.34 43.5,204.15 42.84,203.48 "/>
    <polygon id="_228" class="fil127" points="204.45,45.12 205.11,45.78 43.94,204.59 43.28,203.93 "/>
    <polygon id="_229" class="fil127" points="204.89,45.56 205.55,46.23 44.37,205.04 43.72,204.37 "/>
    <polygon id="_230" class="fil127" points="205.33,46.01 205.99,46.67 44.81,205.48 44.15,204.81 "/>
    <polygon id="_231" class="fil127" points="205.77,46.45 206.43,47.12 45.25,205.93 44.59,205.26 "/>
    <polygon id="_232" class="fil127" points="206.21,46.9 206.87,47.57 45.69,206.37 45.03,205.7 "/>
    <polygon id="_233" class="fil128" points="206.65,47.34 207.3,48.01 46.13,206.82 45.47,206.15 "/>
    <polygon id="_234" class="fil129" points="207.09,47.79 207.74,48.46 46.57,207.26 45.91,206.59 "/>
    <polygon id="_235" class="fil129" points="207.52,48.23 208.18,48.9 47.01,207.71 46.35,207.04 "/>
    <polygon id="_236" class="fil130" points="207.96,48.68 208.62,49.35 47.44,208.15 46.79,207.48 "/>
    <polygon id="_237" class="fil130" points="208.4,49.12 209.06,49.79 47.89,208.6 47.22,207.93 "/>
    <polygon id="_238" class="fil130" points="208.84,49.57 209.5,50.24 48.32,209.04 47.67,208.37 "/>
    <polygon id="_239" class="fil130" points="209.28,50.02 209.94,50.68 48.76,209.49 48.1,208.82 "/>
    <polygon id="_240" class="fil130" points="209.72,50.46 210.37,51.13 49.2,209.93 48.54,209.27 "/>
    <polygon id="_241" class="fil130" points="210.16,50.91 210.81,51.57 49.64,210.38 48.98,209.71 "/>
    <polygon id="_242" class="fil131" points="210.59,51.35 211.25,52.02 50.08,210.82 49.42,210.16 "/>
    <polygon id="_243" class="fil132" points="211.04,51.8 211.69,52.46 50.52,211.27 49.86,210.6 "/>
    <polygon id="_244" class="fil132" points="211.47,52.24 212.13,52.91 50.95,211.71 50.3,211.05 "/>
    <polygon id="_245" class="fil132" points="211.91,52.69 212.57,53.35 51.39,212.16 50.74,211.49 "/>
    <polygon id="_246" class="fil132" points="212.35,53.13 213.01,53.8 51.83,212.61 51.17,211.94 "/>
    <polygon id="_247" class="fil132" points="212.79,53.57 213.44,54.24 52.27,213.05 51.61,212.38 "/>
    <polygon id="_248" class="fil132" points="213.23,54.02 213.89,54.69 52.71,213.5 52.05,212.83 "/>
    <polygon id="_249" class="fil132" points="213.67,54.46 214.32,55.13 53.15,213.94 52.49,213.27 "/>
    <polygon id="_250" class="fil132" points="214.1,54.91 214.76,55.58 53.59,214.39 52.93,213.72 "/>
    <polygon id="_251" class="fil132" points="214.54,55.36 215.2,56.02 54.02,214.83 53.37,214.16 "/>
    <polygon id="_252" class="fil132" points="214.98,55.8 215.64,56.47 54.46,215.28 53.81,214.61 "/>
    <polygon id="_253" class="fil132" points="215.42,56.25 216.08,56.91 54.9,215.72 54.24,215.06 "/>
    <polygon id="_254" class="fil132" points="215.86,56.69 216.52,57.36 55.34,216.17 54.69,215.5 "/>
    <polygon id="_255" class="fil132" points="216.3,57.14 239.99,81.19 78.81,239.99 55.12,215.94 "/>
   </g>
  </g>
  <path class="fil133" d="M75.81 61.33l-26.41 26.41 -6.38 -6.38 33.79 -33.79c1.75,-1.75 4.63,-1.75 6.38,0l33.79 33.79 -6.38 6.38 -25.76 -25.76 0 22.97 0 24.37 0 12.24c0,9.58 -7.83,17.41 -17.41,17.41l-6.43 0 -15.7 0 -6.44 0c-9.57,0 -17.41,-7.83 -17.41,-17.41l0 -22.14 9 0 0 22.14c0,4.63 3.79,8.42 8.41,8.42l6.44 0 15.7 0 6.43 0c4.63,0 8.42,-3.79 8.42,-8.42l0 -12.24 -0.03 0 0 -47.98zm-45.38 -0.11l0 -22.14c0,-4.63 3.79,-8.41 8.41,-8.41l22.14 0 0 -9 -22.14 0c-9.57,0 -17.41,7.83 -17.41,17.41l0 22.14 9 0zm99.13 0l0 -22.14c0,-4.63 -3.78,-8.41 -8.41,-8.41l-22.14 0 0 -9 22.14 0c9.57,0 17.41,7.83 17.41,17.41l0 22.14 -9 0zm0 38.2l0 22.14c0,4.63 -3.78,8.42 -8.41,8.42l-22.14 0 0 8.99 22.14 0c9.57,0 17.41,-7.83 17.41,-17.41l0 -22.14 -9 0z"/>
 </g>
</svg>
